
<svg width="current" height="current" viewBox="0 0 32 32" fill="none" xmlns="http://www.w3.org/2000/svg">
<g filter="url(#filter0_d_94_1035)">
<path d="M28 9.33333V8H25.3333V6.66667H22.6666V5.33333H20V4H12V5.33333H9.33329V6.66667H6.66663V8H3.99996V9.33333H2.66663V12H3.99996V25.3333H2.66663V28H14.6666V18.6667H17.3333V28H29.3333V25.3333H28V12H29.3333V9.33333H28ZM25.3333 25.3333H20V16H12V25.3333H6.66663V10.6667H9.33329V9.33333H12V8H14.6666V6.66667H17.3333V8H20V9.33333H22.6666V10.6667H25.3333V25.3333Z" fill="white"/>
</g>
<defs>
<filter id="filter0_d_94_1035" x="2.66663" y="4" width="26.6666" height="26" filterUnits="userSpaceOnUse" color-interpolation-filters="sRGB">
<feFlood flood-opacity="0" result="BackgroundImageFix"/>
<feColorMatrix in="SourceAlpha" type="matrix" values="0 0 0 0 0 0 0 0 0 0 0 0 0 0 0 0 0 0 127 0" result="hardAlpha"/>
<feOffset dy="2"/>
<feComposite in2="hardAlpha" operator="out"/>
<feColorMatrix type="matrix" values="0 0 0 0 0 0 0 0 0 0 0 0 0 0 0 0 0 0 0.25 0"/>
<feBlend mode="normal" in2="BackgroundImageFix" result="effect1_dropShadow_94_1035"/>
<feBlend mode="normal" in="SourceGraphic" in2="effect1_dropShadow_94_1035" result="shape"/>
</filter>
</defs>
</svg>