<svg width="current" height="current" viewBox="0 0 32 32" fill="none" xmlns="http://www.w3.org/2000/svg">
<g filter="url(#filter0_d_94_1034)">
<path d="M26.6667 8V6.66667H25.3333V5.33333H24V4H10.6667V5.33333H9.33333V6.66667H8V8H6.66667V6.66667V5.33333H4V13.3333H12V10.6667H9.33333V9.33333H10.6667V8H12V6.66667H21.3333V8H22.6667V9.33333H24V10.6667H25.3333V21.3333H24V22.6667H22.6667V24H21.3333V25.3333H12V24H10.6667V22.6667H9.33333V21.3333H8V20H5.33333V24H6.66667V25.3333H8V26.6667H9.33333V28H24V26.6667H25.3333V25.3333H26.6667V24H28V8H26.6667Z" fill="white"/>
</g>
<defs>
<filter id="filter0_d_94_1034" x="4" y="4" width="24" height="26" filterUnits="userSpaceOnUse" color-interpolation-filters="sRGB">
<feFlood flood-opacity="0" result="BackgroundImageFix"/>
<feColorMatrix in="SourceAlpha" type="matrix" values="0 0 0 0 0 0 0 0 0 0 0 0 0 0 0 0 0 0 127 0" result="hardAlpha"/>
<feOffset dy="2"/>
<feComposite in2="hardAlpha" operator="out"/>
<feColorMatrix type="matrix" values="0 0 0 0 0 0 0 0 0 0 0 0 0 0 0 0 0 0 0.25 0"/>
<feBlend mode="normal" in2="BackgroundImageFix" result="effect1_dropShadow_94_1034"/>
<feBlend mode="normal" in="SourceGraphic" in2="effect1_dropShadow_94_1034" result="shape"/>
</filter>
</defs>
</svg>
